HIERARCHY
ROOT Hips
{
    OFFSET 0.000000 0.000000 0.000000
    CHANNELS 6 Xposition Yposition Zposition Zrotation Xrotation Yrotation
    JOINT Spine
    {
        OFFSET -0.000000 0.081317 0.000000
        CHANNELS 3 Zrotation Xrotation Yrotation
        JOINT Spine1
        {
            OFFSET -0.000000 0.225200 0.000000
            CHANNELS 3 Zrotation Xrotation Yrotation
            JOINT Neck
            {
                OFFSET -0.000000 0.224275 0.020389
                CHANNELS 3 Zrotation Xrotation Yrotation
                JOINT Head
                {
                    OFFSET -0.000000 0.138833 -0.019833
                    CHANNELS 3 Zrotation Xrotation Yrotation
                    End Site
                    {
                        OFFSET -0.000000 0.198333 0.000000
                    }
                }
            }
            JOINT LeftShoulder
            {
                OFFSET 0.039732 0.208237 -0.000812
                CHANNELS 3 Zrotation Xrotation Yrotation
                JOINT LeftArm
                {
                    OFFSET 0.110955 0.000000 0.000000
                    CHANNELS 3 Zrotation Xrotation Yrotation
                    JOINT LeftForeArm
                    {
                        OFFSET 0.324523 0.000000 0.000000
                        CHANNELS 3 Zrotation Xrotation Yrotation
                        JOINT LeftHand
                        {
                            OFFSET 0.302601 0.000000 0.000000
                            CHANNELS 3 Zrotation Xrotation Yrotation
                            End Site
                            {
                                OFFSET 0.148750 0.000000 0.000000
                            }
                        }
                    }
                }
            }
            JOINT RightShoulder
            {
                OFFSET -0.039598 0.208237 -0.000812
                CHANNELS 3 Zrotation Xrotation Yrotation
                JOINT RightArm
                {
                    OFFSET -0.110955 0.000000 0.000000
                    CHANNELS 3 Zrotation Xrotation Yrotation
                    JOINT RightForeArm
                    {
                        OFFSET -0.324523 0.000000 0.000000
                        CHANNELS 3 Zrotation Xrotation Yrotation
                        JOINT RightHand
                        {
                            OFFSET -0.302601 0.000000 0.000000
                            CHANNELS 3 Zrotation Xrotation Yrotation
                            End Site
                            {
                                OFFSET -0.148750 0.000000 0.000000
                            }
                        }
                    }
                }
            }
        }
    }
    JOINT LeftUpLeg
    {
        OFFSET 0.099167 0.000000 0.000000
        CHANNELS 3 Zrotation Xrotation Yrotation
        JOINT LeftLeg
        {
            OFFSET -0.000000 -0.380753 0.000000
            CHANNELS 3 Zrotation Xrotation Yrotation
            JOINT LeftFoot
            {
                OFFSET -0.000000 -0.440093 0.000000
                CHANNELS 3 Zrotation Xrotation Yrotation
                JOINT LeftToeBase
                {
                    OFFSET -0.000000 -0.064458 0.148750
                    CHANNELS 3 Zrotation Xrotation Yrotation
                    End Site
                    {
                        OFFSET -0.000000 0.000000 0.039667
                    }
                }
            }
        }
    }
    JOINT RightUpLeg
    {
        OFFSET -0.099167 0.000000 0.000000
        CHANNELS 3 Zrotation Xrotation Yrotation
        JOINT RightLeg
        {
            OFFSET -0.000000 -0.380753 0.000000
            CHANNELS 3 Zrotation Xrotation Yrotation
            JOINT RightFoot
            {
                OFFSET -0.000000 -0.440093 0.000000
                CHANNELS 3 Zrotation Xrotation Yrotation
                JOINT RightToeBase
                {
                    OFFSET -0.000000 -0.064458 0.148750
                    CHANNELS 3 Zrotation Xrotation Yrotation
                    End Site
                    {
                        OFFSET -0.000000 0.000000 0.039667
                    }
                }
            }
        }
    }
}
MOTION
Frames:    14
Frame Time:    0.010000
0.172959    0.909373    0.808123    -0.563276    -1.385270    37.957687    8.839962    -14.410428    7.744654    -8.701051    23.316320    4.011673    4.629614    15.043198    -8.740327    2.252389    -17.912695    -8.482623    -14.380797    6.935327    -1.946725    -57.232368    -5.980243    -4.828900    -7.267528    32.225155    -22.560677    20.044773    27.916754    -19.762430    12.116013    0.883595    3.582999    66.012177    58.430901    -9.210938    -26.251547    -11.901964    35.908283    12.251945    -3.653381    -3.197017    -3.603684    -9.932348    17.353527    -0.893484    1.267791    21.864086    24.473955    26.304499    -50.438206    0.000000    0.000000    0.000000    4.735581    12.169065    -14.872091    -0.011409    20.575064    10.044360    4.070765    19.818594    -13.624258    0.000000    0.000000    0.000000    
0.177722    0.910167    0.814020    -0.364616    -1.428908    37.830261    8.620667    -14.334079    7.293597    -8.726674    23.209379    3.869637    4.734523    15.121248    -8.602554    2.118912    -17.790813    -8.378286    -14.326888    6.895895    -1.933660    -57.333378    -5.936932    -5.046058    -7.109336    32.153954    -22.645325    20.218422    27.826420    -19.833250    12.174892    0.969316    3.548174    65.974464    58.449669    -9.257955    -26.239668    -11.991048    36.064331    12.171581    -3.707436    -3.213340    -3.651416    -9.139368    18.365416    -0.895050    1.148230    22.120369    24.537025    25.105093    -51.797531    0.000000    0.000000    0.000000    4.094416    11.349172    -14.540781    0.066425    22.689390    9.853838    3.735502    20.493095    -12.999949    0.000000    0.000000    0.000000    
0.182434    0.910613    0.819951    -0.202660    -1.462978    37.668343    8.369507    -14.410249    6.811759    -8.620886    23.350267    3.707241    4.898614    15.012071    -8.624904    2.064381    -17.536264    -8.428731    -14.245345    7.091596    -2.047084    -57.510822    -6.080802    -5.488361    -6.904328    32.054974    -22.889194    20.268591    27.752867    -19.741587    12.114587    0.931288    3.575052    66.017410    58.432724    -9.345535    -26.264668    -12.099764    36.251408    12.161014    -3.760182    -3.205677    -3.632791    -8.229635    19.394312    -1.555557    0.235062    24.513977    27.239616    24.628958    -55.516560    0.000000    0.000000    0.000000    3.497602    10.471080    -14.187857    0.159543    24.862547    9.780987    2.758552    20.817814    -12.372239    0.000000    0.000000    0.000000    
0.187316    0.910615    0.826490    -0.089912    -1.591835    37.396255    8.174885    -14.537219    6.396725    -8.435583    23.551708    3.551169    4.708528    15.001729    -8.363359    2.008670    -17.421896    -8.172953    -14.139513    7.032521    -2.236557    -57.657825    -5.894882    -5.678611    -6.696151    31.832369    -23.098873    21.083614    27.377995    -19.967861    12.079270    0.947171    3.587846    66.085152    58.563152    -9.508717    -26.422676    -12.304905    36.364075    11.905960    -3.868181    -3.108906    -3.401943    -7.700008    20.445665    -1.587559    1.363447    17.352213    22.322744    25.301394    -47.577175    0.000000    0.000000    0.000000    3.024946    9.735914    -13.665895    0.258586    26.972307    9.657026    1.045909    20.810371    -11.145793    0.000000    0.000000    0.000000    
0.190754    0.911492    0.830432    0.137683    -1.338758    37.445198    7.698831    -14.450735    5.643219    -8.499227    23.392790    3.323272    4.749147    15.069137    -8.149044    1.934526    -17.560772    -7.966600    -13.937752    6.923793    -2.339609    -57.839031    -5.813107    -5.979213    -6.442842    31.682297    -23.387686    21.291908    27.207314    -20.032553    12.176629    1.006914    3.694904    65.767532    58.467667    -9.291527    -26.453304    -12.392043    36.497871    11.838670    -3.910486    -3.116713    -3.717402    -7.205050    21.343596    -1.171888    0.963554    20.583069    23.681757    22.955482    -53.381454    0.000000    0.000000    0.000000    2.252974    8.354494    -13.888233    0.100743    29.347746    10.073427    0.418504    20.595621    -11.111727    0.000000    0.000000    0.000000    
0.194617    0.911724    0.835496    0.289084    -1.196302    37.333309    7.152834    -14.503303    5.017086    -8.121254    23.357542    3.055057    4.667803    15.164183    -7.963312    1.763909    -17.715590    -7.815361    -13.993135    6.913974    -2.436566    -57.833130    -5.518298    -6.307955    -6.162145    31.464085    -23.805681    21.358679    27.018438    -19.922670    12.066908    0.961128    3.716646    65.838554    58.493755    -9.467748    -26.545050    -12.596425    36.654049    11.700185    -4.043326    -3.125291    -3.881516    -7.005141    22.018049    -1.463836    1.137455    20.247843    24.014214    23.975956    -52.917011    0.000000    0.000000    0.000000    1.631287    7.235198    -13.630511    -0.014649    31.591127    10.235675    -0.387044    19.834860    -10.158446    0.000000    0.000000    0.000000    
0.198297    0.911895    0.840356    0.401035    -1.019925    37.222980    6.580038    -14.581244    4.392065    -7.663335    23.319267    2.771412    4.598993    15.223789    -7.866226    1.667081    -17.808180    -7.737946    -14.024457    6.820174    -2.618160    -57.839993    -5.069529    -6.533092    -5.727043    31.265797    -24.395685    20.808096    27.053141    -19.342045    11.926881    0.863196    3.682971    65.895790    58.357277    -9.600498    -26.540710    -12.782437    36.832203    11.698228    -4.179547    -3.041550    -4.030317    -6.546904    22.938984    -1.552122    0.956563    19.603477    23.804886    23.761438    -53.109997    0.000000    0.000000    0.000000    1.045267    6.009150    -13.404472    -0.106617    33.680321    10.192339    -0.348675    18.862041    -10.087456    0.000000    0.000000    0.000000    
0.201933    0.911983    0.845248    0.543377    -0.890846    37.114323    5.913458    -14.526934    3.768437    -7.031039    23.128637    2.449309    4.451733    15.376970    -7.719952    1.545833    -17.944548    -7.611497    -14.004436    6.868599    -2.839242    -57.918427    -4.064803    -6.737604    -5.022552    30.595219    -25.322741    22.454847    26.093632    -19.879000    11.749027    0.852216    3.530236    65.854988    58.281918    -9.658954    -26.539299    -12.822365    36.970428    11.557948    -4.189091    -3.123398    -3.984653    -6.282944    23.502342    -1.942585    1.590580    15.034261    21.669378    24.265800    -48.010544    0.000000    0.000000    0.000000    0.509714    4.915618    -12.699194    0.165372    35.552090    9.425638    -0.484958    17.687462    -10.149356    0.000000    0.000000    0.000000    
0.204999    0.911896    0.849561    0.505747    -0.615148    37.144684    5.274089    -14.642815    3.008691    -6.382872    22.945812    2.077247    4.236244    15.372112    -7.581383    1.473367    -17.924452    -7.487262    -14.078821    6.803564    -3.017908    -57.887360    -3.764598    -7.110626    -4.730260    30.571661    -25.754110    22.836020    26.015139    -20.058868    11.558713    0.770948    3.417271    65.824066    58.108589    -9.691811    -26.611580    -12.744642    37.033268    11.659522    -4.071127    -3.132299    -4.067117    -5.925998    23.554943    -2.198758    1.240923    14.567764    21.310793    24.208723    -47.554192    0.000000    0.000000    0.000000    0.037762    3.512340    -12.626625    0.217286    37.285667    9.077028    -0.753116    16.654966    -10.338222    0.000000    0.000000    0.000000    
0.208156    0.912448    0.853700    0.744509    -0.398612    37.091385    4.513493    -14.569934    2.274654    -5.907190    22.815849    1.761855    4.156995    15.518230    -7.422666    1.431639    -18.060604    -7.326336    -14.268377    6.601274    -3.049251    -57.570171    -3.049252    -7.498792    -4.605508    29.905128    -26.249809    22.586338    25.424721    -19.755035    11.552579    0.660249    3.437483    65.823021    57.953369    -9.896942    -26.593029    -12.875991    37.108765    11.584239    -4.167366    -2.908033    -4.304110    -5.433375    23.462503    -2.449023    0.988250    14.970050    21.479300    24.102240    -47.833035    0.000000    0.000000    0.000000    -0.659475    2.298094    -12.575074    0.205735    38.694149    8.838206    -1.432731    16.181576    -9.944997    0.000000    0.000000    0.000000    
0.212018    0.912594    0.858765    0.905159    -0.338840    36.826828    3.889631    -14.627544    1.778208    -5.196949    22.870989    1.480995    4.051830    15.700162    -7.344637    1.243336    -18.183088    -7.291517    -14.379480    6.591896    -3.486972    -57.498821    -2.395024    -7.808437    -3.895405    29.838947    -26.648296    21.941061    25.656132    -19.432547    11.424514    0.598623    3.287855    65.797287    57.833889    -10.048408    -26.661909    -12.898903    37.118706    11.604388    -4.164739    -2.913625    -4.516004    -4.728102    23.787573    -2.329647    0.353421    18.795677    22.835297    23.025497    -52.524204    0.000000    0.000000    0.000000    -1.206530    1.279750    -12.398088    0.177236    39.844479    8.662531    -1.815910    15.550227    -9.956207    0.000000    0.000000    0.000000    
0.215124    0.912760    0.863109    0.901465    -0.157764    36.782265    3.314792    -14.698554    1.100111    -4.597766    22.775858    1.153152    3.972891    15.751259    -7.193878    1.077665    -18.234829    -7.180813    -14.328160    6.528751    -3.794365    -57.482979    -1.710784    -8.221145    -3.445294    29.442984    -27.051714    21.733902    25.394495    -19.255840    11.338946    0.304027    3.148486    66.099670    57.704430    -10.525244    -26.679689    -12.850327    37.156029    11.478276    -4.095008    -2.907729    -4.616687    -4.452516    23.961969    -2.366324    0.248494    18.907928    22.732517    22.678852    -52.753532    0.000000    0.000000    0.000000    -1.650790    0.029698    -12.471581    0.094783    40.817600    8.568241    -2.140842    14.938168    -10.047584    0.000000    0.000000    0.000000    
0.218228    0.912991    0.867460    0.886892    -0.015044    36.664478    2.809824    -14.654990    0.367245    -4.117270    22.408255    0.830974    4.030153    16.184141    -7.024625    0.844874    -18.426632    -7.055976    -14.276819    6.578537    -4.077776    -57.346176    -1.398008    -8.575213    -3.275038    29.453268    -27.241405    21.703699    25.409481    -19.436970    11.397107    0.416364    3.206636    66.170425    57.564758    -10.769009    -26.936556    -12.842710    36.899967    11.910988    -4.054451    -2.708529    -4.722721    -4.113651    23.693602    -2.365252    0.023425    19.635035    22.655380    22.400381    -53.100174    0.000000    0.000000    0.000000    -2.064203    -1.143561    -12.474321    -0.004822    41.578373    8.548219    -2.410934    14.232844    -9.952830    0.000000    0.000000    0.000000    
0.221314    0.913251    0.871854    0.862535    0.093210    36.513412    2.259113    -14.250696    -0.513836    -3.400898    21.553354    0.383883    3.612440    16.376705    -6.808665    0.935027    -18.078026    -6.800583    -14.531307    6.567253    -3.815358    -57.128803    -0.758129    -8.922973    -2.921058    29.488638    -27.479229    20.722078    25.779940    -18.817842    11.182323    0.637317    3.189195    66.216049    57.408962    -10.891438    -26.956936    -12.714149    36.887478    11.901032    -3.917802    -2.698767    -4.786801    -3.779084    23.694283    -2.325476    -0.148566    20.315563    22.635159    22.030098    -53.739639    0.000000    0.000000    0.000000    -2.403628    -2.336718    -12.443292    -0.113920    42.154137    8.626863    -2.597644    13.801153    -10.148534    0.000000    0.000000    0.000000    
